<!DOCTYPE svg PUBLIC "-//W3C//DTD SVG 20010904//EN" "http://www.w3.org/TR/2001/REC-SVG-20010904/DTD/svg10.dtd">
<svg version="1.0" xmlns="http://www.w3.org/2000/svg" width="512px" height="512px" viewBox="0 0 5120 5120" preserveAspectRatio="xMidYMid meet">
<g id="layer1" fill="#fafafa" stroke="none">
 <path d="M2298 5113 c12 -2 32 -2 45 0 12 2 2 4 -23 4 -25 0 -35 -2 -22 -4z"/>
 <path d="M2788 5113 c12 -2 32 -2 45 0 12 2 2 4 -23 4 -25 0 -35 -2 -22 -4z"/>
 <path d="M2162 5098 c7 -19 45 -21 51 -4 5 12 -1 16 -24 16 -20 0 -29 -4 -27 -12z"/>
 <path d="M2914 5094 c18 -17 47 -16 54 4 2 8 -8 12 -33 12 -33 0 -35 -1 -21 -16z"/>
 <path d="M891 4534 c-21 -27 -20 -44 4 -44 17 0 57 49 49 61 -10 17 -32 9 -53 -17z"/>
 <path d="M4274 4466 c-9 -23 168 -201 190 -193 15 6 15 10 2 34 -17 33 -131 146 -164 162 -18 10 -23 9 -28 -3z"/>
 <path d="M720 4379 c-29 -41 -31 -59 -6 -59 21 0 79 67 73 84 -11 27 -36 18 -67 -25z"/>
 <path d="M581 4226 c-22 -22 -31 -40 -27 -51 4 -12 10 -14 25 -6 27 15 72 71 65 82 -10 17 -30 9 -63 -25z"/>
 <path d="M1475 3750 c-3 -5 28 -139 70 -297 43 -159 94 -355 115 -438 21 -82 77 -294 125 -470 47 -176 147 -547 221 -825 73 -278 138 -515 144 -527 l10 -23 400 0 c356 0 401 2 407 16 6 16 -26 141 -184 734 -125 469 -343 1291 -343 1296 0 2 290 4 645 4 536 0 647 2 651 14 8 22 -108 488 -128 514 -13 16 -2123 18 -2133 2z"/>
 <path d="M5054 3125 c-8 -21 3 -47 19 -43 6 3 13 14 15 25 4 24 -26 40 -34 18z"/>
 <path d="M5084 2956 c-7 -20 2 -46 16 -46 13 0 13 47 0 55 -6 3 -13 -1 -16 -9z"/>
 <path d="M16 2943 c-3 -3 -6 -19 -6 -34 0 -21 4 -27 15 -23 8 4 15 17 15 29 0 25 -12 39 -24 28z"/>
 <path d="M5113 2810 c0 -25 2 -35 4 -22 2 12 2 32 0 45 -2 12 -4 2 -4 -23z"/>
 <path d="M3 2765 c0 -27 2 -38 4 -22 2 15 2 37 0 50 -2 12 -4 0 -4 -28z"/>
 <path d="M3 2360 c0 -25 2 -35 4 -22 2 12 2 32 0 45 -2 12 -4 2 -4 -23z"/>
 <path d="M5113 2320 c0 -25 2 -35 4 -22 2 12 2 32 0 45 -2 12 -4 2 -4 -23z"/>
 <path d="M10 2225 c0 -25 4 -35 13 -33 19 7 20 36 3 54 -15 14 -16 12 -16 -21z"/>
 <path d="M5092 2221 c-16 -10 -12 -53 6 -59 8 -2 12 8 12 32 0 40 0 39 -18 27z"/>
 <path d="M30 2110 c0 -18 4 -29 10 -25 6 3 10 15 10 25 0 10 -4 22 -10 25 -6 4 -10 -7 -10 -25z"/>
 <path d="M4515 927 c-20 -17 -26 -29 -22 -42 7 -15 10 -16 29 -3 32 21 45 45 32 58 -8 8 -19 5 -39 -13z"/>
 <path d="M593 905 c-9 -24 44 -72 61 -55 13 13 0 37 -32 58 -19 13 -22 12 -29 -3z"/>
 <path d="M4359 763 c-30 -32 -42 -60 -30 -67 15 -10 93 54 89 72 -5 27 -32 25 -59 -5z"/>
 <path d="M834 665 c-7 -18 41 -75 62 -75 23 0 24 17 3 44 -30 38 -58 51 -65 31z"/>
 <path d="M4191 604 c-21 -27 -20 -44 4 -44 17 0 57 49 49 61 -10 17 -32 9 -53 -17z"/>
 <path d="M4114 545 c-20 -20 -24 -29 -15 -38 16 -16 66 12 66 38 0 29 -22 29 -51 0z"/>
 <path d="M2985 40 c-4 -6 8 -10 30 -10 22 0 34 4 30 10 -3 6 -17 10 -30 10 -13 0 -27 -4 -30 -10z"/>
 <path d="M2197 34 c-12 -13 4 -24 34 -24 27 0 29 2 15 15 -15 16 -38 20 -49 9z"/>
 <path d="M2887 34 c-16 -16 -5 -25 26 -22 17 2 31 8 30 13 -3 12 -46 19 -56 9z"/>
 <path d="M2338 3 c12 -2 32 -2 45 0 12 2 2 4 -23 4 -25 0 -35 -2 -22 -4z"/>
 <path d="M2743 3 c15 -2 37 -2 50 0 12 2 0 4 -28 4 -27 0 -38 -2 -22 -4z"/>
 </g>
<g id="layer2" fill="#0096ff" stroke="none">
 <path d="M2300 5109 c-41 -4 -118 -12 -170 -17 -175 -18 -403 -86 -633 -189 -574 -256 -1060 -753 -1306 -1335 -86 -204 -148 -426 -162 -578 -5 -52 -13 -135 -18 -185 -12 -113 -12 -375 -1 -480 5 -44 14 -127 19 -185 21 -230 140 -581 282 -833 123 -219 239 -369 433 -562 204 -202 381 -334 616 -459 254 -134 569 -237 785 -257 55 -5 138 -13 185 -18 109 -12 351 -12 460 0 47 5 132 13 190 18 219 20 557 131 810 268 108 59 261 158 322 209 26 21 73 59 104 84 76 60 242 226 329 328 277 328 513 849 545 1202 5 52 14 142 20 200 14 120 9 440 -9 595 -39 332 -140 640 -303 925 -118 205 -224 343 -404 525 -196 198 -338 309 -557 435 -266 152 -601 270 -827 291 -334 30 -543 35 -710 18z m1288 -1381 c5 -7 31 -94 57 -193 25 -99 51 -196 56 -215 5 -19 9 -45 9 -57 l0 -23 -647 -2 c-641 -3 -648 -3 -647 -23 1 -18 74 -295 348 -1320 160 -600 183 -690 179 -697 -2 -5 -175 -8 -384 -8 l-379 0 -10 22 c-6 13 -71 250 -144 528 -74 278 -174 649 -221 825 -48 176 -106 397 -130 490 -24 94 -73 281 -109 416 -36 135 -66 251 -66 257 0 18 2073 17 2088 0z"/>
 </g>

</svg>